G04*
G04 #@! TF.GenerationSoftware,Altium Limited,Altium Designer,23.4.1 (23)*
G04*
G04 Layer_Color=8421504*
%FSLAX44Y44*%
%MOMM*%
G71*
G04*
G04 #@! TF.SameCoordinates,803C344B-8DD6-4E4C-9FAA-A71E5F9A745E*
G04*
G04*
G04 #@! TF.FilePolarity,Positive*
G04*
G01*
G75*
%ADD17R,0.5500X1.5000*%
%ADD18R,0.9000X1.0000*%
%ADD19R,1.3000X1.5000*%
%ADD20R,1.0000X1.0000*%
%ADD21R,1.5000X1.3000*%
%ADD22R,1.0000X0.9000*%
D17*
X438099Y314500D02*
D03*
X425399D02*
D03*
X412699D02*
D03*
X400000Y314500D02*
D03*
X387300Y314500D02*
D03*
X374600D02*
D03*
X361900D02*
D03*
X438100Y260500D02*
D03*
X425400D02*
D03*
X412700D02*
D03*
X400000Y260500D02*
D03*
X387301Y260500D02*
D03*
X374601D02*
D03*
X361901D02*
D03*
D18*
X541500Y345000D02*
D03*
X558500D02*
D03*
X431500Y370000D02*
D03*
X448500D02*
D03*
X558500Y217500D02*
D03*
X541500D02*
D03*
X241500D02*
D03*
X258500D02*
D03*
D19*
X390500Y370000D02*
D03*
X409500D02*
D03*
D20*
X359500Y335000D02*
D03*
X375500D02*
D03*
D21*
X525000Y162000D02*
D03*
Y143000D02*
D03*
X275000Y162000D02*
D03*
Y143000D02*
D03*
D22*
X525000Y121000D02*
D03*
Y104000D02*
D03*
X275000Y121000D02*
D03*
Y104000D02*
D03*
M02*
