G04*
G04 #@! TF.GenerationSoftware,Altium Limited,Altium Designer,23.4.1 (23)*
G04*
G04 Layer_Color=65535*
%FSLAX44Y44*%
%MOMM*%
G71*
G04*
G04 #@! TF.SameCoordinates,803C344B-8DD6-4E4C-9FAA-A71E5F9A745E*
G04*
G04*
G04 #@! TF.FilePolarity,Positive*
G04*
G01*
G75*
%ADD10C,0.2500*%
%ADD11C,0.2000*%
%ADD12C,0.5080*%
%ADD13C,0.3000*%
%ADD14C,0.1000*%
%ADD15C,0.2540*%
%ADD16C,0.1500*%
D10*
X363150Y247250D02*
G03*
X363150Y247250I-1250J0D01*
G01*
D11*
X356250Y272000D02*
Y303000D01*
X443750Y272000D02*
Y303000D01*
X548000Y340000D02*
X552000D01*
X548000Y350000D02*
X552000D01*
X419000Y363500D02*
Y376500D01*
X438000Y365000D02*
X442000D01*
X438000Y375000D02*
X442000D01*
X548000Y222500D02*
X552000D01*
X548000Y212500D02*
X552000D01*
X248000D02*
X252000D01*
X248000Y222500D02*
X252000D01*
X367500Y330000D02*
Y340000D01*
X518500Y133500D02*
X531500D01*
X268500D02*
X281500D01*
X520000Y110500D02*
Y114500D01*
X530000Y110500D02*
Y114500D01*
X270000Y110500D02*
Y114500D01*
X280000Y110500D02*
Y114500D01*
D12*
X594300Y356300D02*
X706280D01*
X594300Y203800D02*
Y356300D01*
X706280Y203800D02*
Y356300D01*
X594300Y203800D02*
X706280D01*
X93720Y203700D02*
X205700D01*
Y356200D01*
X93720Y203700D02*
Y356200D01*
X205700D01*
X717300Y219000D02*
X736000D01*
X768000Y219090D02*
X795090D01*
X796040Y220040D01*
Y341000D01*
X768000D02*
X796040D01*
X717300Y219000D02*
Y340910D01*
X736000D01*
X61500Y341000D02*
X80200D01*
X2410Y340910D02*
X29500D01*
X1460Y339960D02*
X2410Y340910D01*
X1460Y219000D02*
Y339960D01*
Y219000D02*
X29500D01*
X80200Y219090D02*
Y341000D01*
X61500Y219090D02*
X80200D01*
X339000Y69000D02*
Y87700D01*
X339090Y9910D02*
Y37000D01*
Y9910D02*
X340040Y8960D01*
X461000D01*
Y37000D01*
X339000Y87700D02*
X460910D01*
Y69000D02*
Y87700D01*
X476300Y98720D02*
Y210700D01*
X323800D02*
X476300D01*
X323800Y98720D02*
X476300D01*
X323800D02*
Y210700D01*
D13*
X357000Y343000D02*
Y357995D01*
X364498D01*
X366997Y355496D01*
Y350498D01*
X364498Y347998D01*
X357000D01*
X361998D02*
X366997Y343000D01*
X381992Y357995D02*
X371995D01*
Y343000D01*
X381992D01*
X371995Y350498D02*
X376993D01*
X386990Y357995D02*
X396987D01*
X391989D01*
Y343000D01*
X401985Y357995D02*
Y345499D01*
X404485Y343000D01*
X409483D01*
X411982Y345499D01*
Y357995D01*
X416981Y343000D02*
Y357995D01*
X424478D01*
X426977Y355496D01*
Y350498D01*
X424478Y347998D01*
X416981D01*
X421979D02*
X426977Y343000D01*
X431976D02*
Y357995D01*
X441973Y343000D01*
Y357995D01*
X539000Y158995D02*
X548997D01*
X543998D01*
Y144000D01*
X553995D02*
Y158995D01*
X561493D01*
X563992Y156496D01*
Y151498D01*
X561493Y148998D01*
X553995D01*
X558993D02*
X563992Y144000D01*
X568990D02*
Y153997D01*
X573989Y158995D01*
X578987Y153997D01*
Y144000D01*
Y151498D01*
X568990D01*
X583985Y144000D02*
Y158995D01*
X593982Y144000D01*
Y158995D01*
X608977Y156496D02*
X606478Y158995D01*
X601480D01*
X598981Y156496D01*
Y153997D01*
X601480Y151498D01*
X606478D01*
X608977Y148998D01*
Y146499D01*
X606478Y144000D01*
X601480D01*
X598981Y146499D01*
X613976Y144000D02*
Y158995D01*
X618974Y153997D01*
X623973Y158995D01*
Y144000D01*
X628971Y158995D02*
X633969D01*
X631470D01*
Y144000D01*
X628971D01*
X633969D01*
X641467Y158995D02*
X651464D01*
X646465D01*
Y144000D01*
X162000D02*
Y158995D01*
X169498D01*
X171997Y156496D01*
Y151498D01*
X169498Y148998D01*
X162000D01*
X166998D02*
X171997Y144000D01*
X186992Y158995D02*
X176995D01*
Y144000D01*
X186992D01*
X176995Y151498D02*
X181994D01*
X201987Y156496D02*
X199488Y158995D01*
X194489D01*
X191990Y156496D01*
Y146499D01*
X194489Y144000D01*
X199488D01*
X201987Y146499D01*
X216982Y158995D02*
X206985D01*
Y144000D01*
X216982D01*
X206985Y151498D02*
X211984D01*
X221981Y158995D02*
X226979D01*
X224480D01*
Y144000D01*
X221981D01*
X226979D01*
X234477Y158995D02*
Y148998D01*
X239475Y144000D01*
X244473Y148998D01*
Y158995D01*
X259468D02*
X249472D01*
Y144000D01*
X259468D01*
X249472Y151498D02*
X254470D01*
D14*
X4499Y380000D02*
X2000Y382499D01*
Y384998D01*
X4499Y387498D01*
X13246Y384998D02*
X9498D01*
X8248Y383749D01*
Y381250D01*
X9498Y380000D01*
X13246D01*
X15746D02*
X18245Y382499D01*
Y384998D01*
X15746Y387498D01*
X29491D02*
X34490D01*
Y386248D01*
X29491Y381250D01*
Y380000D01*
X34490D01*
X38238Y384998D02*
X40738D01*
X41987Y383749D01*
Y380000D01*
X38238D01*
X36989Y381250D01*
X38238Y382499D01*
X41987D01*
X44486Y384998D02*
Y380000D01*
Y382499D01*
X45736Y383749D01*
X46986Y384998D01*
X48235D01*
X51984Y380000D02*
X54483D01*
X53234D01*
Y384998D01*
X51984D01*
X59482Y386248D02*
Y384998D01*
X58232D01*
X60731D01*
X59482D01*
Y381250D01*
X60731Y380000D01*
X64480Y387498D02*
Y380000D01*
Y383749D01*
X65730Y384998D01*
X68229D01*
X69478Y383749D01*
Y380000D01*
X71978Y384998D02*
Y381250D01*
X73227Y380000D01*
X76976D01*
Y378750D01*
X75726Y377501D01*
X74477D01*
X76976Y380000D02*
Y384998D01*
X80725D02*
X83224D01*
X84473Y383749D01*
Y380000D01*
X80725D01*
X79475Y381250D01*
X80725Y382499D01*
X84473D01*
X94470Y381250D02*
X95720Y380000D01*
X98219D01*
X99469Y381250D01*
Y386248D01*
X98219Y387498D01*
X95720D01*
X94470Y386248D01*
Y384998D01*
X95720Y383749D01*
X99469D01*
X101968Y380000D02*
X106966Y384998D01*
X114464Y380000D02*
X109466D01*
X114464Y384998D01*
Y386248D01*
X113214Y387498D01*
X110715D01*
X109466Y386248D01*
X116963D02*
X118213Y387498D01*
X120712D01*
X121961Y386248D01*
Y381250D01*
X120712Y380000D01*
X118213D01*
X116963Y381250D01*
Y386248D01*
X129459Y380000D02*
X124461D01*
X129459Y384998D01*
Y386248D01*
X128209Y387498D01*
X125710D01*
X124461Y386248D01*
X135707Y380000D02*
Y387498D01*
X131958Y383749D01*
X136957D01*
X6998Y397498D02*
X2000D01*
Y393749D01*
X4499D01*
X2000D01*
Y390000D01*
X10747Y394998D02*
X13246D01*
X14496Y393749D01*
Y390000D01*
X10747D01*
X9498Y391250D01*
X10747Y392499D01*
X14496D01*
X21994Y394998D02*
X18245D01*
X16995Y393749D01*
Y391250D01*
X18245Y390000D01*
X21994D01*
X28242D02*
X25742D01*
X24493Y391250D01*
Y393749D01*
X25742Y394998D01*
X28242D01*
X29491Y393749D01*
Y392499D01*
X24493D01*
X31990Y397498D02*
Y390000D01*
X35739D01*
X36989Y391250D01*
Y392499D01*
Y393749D01*
X35739Y394998D01*
X31990D01*
X40738D02*
X43237D01*
X44486Y393749D01*
Y390000D01*
X40738D01*
X39488Y391250D01*
X40738Y392499D01*
X44486D01*
X46986Y390000D02*
X49485D01*
X48235D01*
Y397498D01*
X46986D01*
X53234Y390000D02*
X55733D01*
X54483D01*
Y397498D01*
X53234D01*
X71978Y390000D02*
X66979D01*
X71978Y394998D01*
Y396248D01*
X70728Y397498D01*
X68229D01*
X66979Y396248D01*
X74477D02*
X75726Y397498D01*
X78225D01*
X79475Y396248D01*
Y391250D01*
X78225Y390000D01*
X75726D01*
X74477Y391250D01*
Y396248D01*
X81974D02*
X83224Y397498D01*
X85723D01*
X86973Y396248D01*
Y391250D01*
X85723Y390000D01*
X83224D01*
X81974Y391250D01*
Y396248D01*
X89472D02*
X90722Y397498D01*
X93221D01*
X94470Y396248D01*
Y391250D01*
X93221Y390000D01*
X90722D01*
X89472Y391250D01*
Y396248D01*
X104467Y397498D02*
Y390000D01*
X108216D01*
X109466Y391250D01*
Y392499D01*
Y393749D01*
X108216Y394998D01*
X104467D01*
X111965D02*
Y391250D01*
X113214Y390000D01*
X116963D01*
Y394998D01*
X120712Y390000D02*
Y396248D01*
Y393749D01*
X119462D01*
X121962D01*
X120712D01*
Y396248D01*
X121962Y397498D01*
X126960Y390000D02*
Y396248D01*
Y393749D01*
X125710D01*
X128209D01*
X126960D01*
Y396248D01*
X128209Y397498D01*
X135707Y390000D02*
X133208D01*
X131958Y391250D01*
Y393749D01*
X133208Y394998D01*
X135707D01*
X136957Y393749D01*
Y392499D01*
X131958D01*
X139456Y394998D02*
Y390000D01*
Y392499D01*
X140705Y393749D01*
X141955Y394998D01*
X143205D01*
X150702Y390000D02*
X148203D01*
X146953Y391250D01*
Y393749D01*
X148203Y394998D01*
X150702D01*
X151952Y393749D01*
Y392499D01*
X146953D01*
X159450Y397498D02*
Y390000D01*
X155701D01*
X154451Y391250D01*
Y393749D01*
X155701Y394998D01*
X159450D01*
X170696D02*
X173195D01*
X174445Y393749D01*
Y390000D01*
X170696D01*
X169446Y391250D01*
X170696Y392499D01*
X174445D01*
X181942Y397498D02*
Y390000D01*
X178193D01*
X176944Y391250D01*
Y393749D01*
X178193Y394998D01*
X181942D01*
X185691D02*
X188190D01*
X189440Y393749D01*
Y390000D01*
X185691D01*
X184442Y391250D01*
X185691Y392499D01*
X189440D01*
X191939Y387501D02*
Y394998D01*
X195688D01*
X196938Y393749D01*
Y391250D01*
X195688Y390000D01*
X191939D01*
X200686Y396248D02*
Y394998D01*
X199437D01*
X201936D01*
X200686D01*
Y391250D01*
X201936Y390000D01*
X209433D02*
X206934D01*
X205685Y391250D01*
Y393749D01*
X206934Y394998D01*
X209433D01*
X210683Y393749D01*
Y392499D01*
X205685D01*
X213182Y394998D02*
Y390000D01*
Y392499D01*
X214432Y393749D01*
X215681Y394998D01*
X216931D01*
X228178Y397498D02*
Y392499D01*
X230677Y390000D01*
X233176Y392499D01*
Y397498D01*
X235675Y390000D02*
X238174D01*
X236925D01*
Y397498D01*
X235675Y396248D01*
X241923Y390000D02*
Y391250D01*
X243173D01*
Y390000D01*
X241923D01*
X248171Y396248D02*
X249421Y397498D01*
X251920D01*
X253169Y396248D01*
Y391250D01*
X251920Y390000D01*
X249421D01*
X248171Y391250D01*
Y396248D01*
X543752Y226251D02*
Y233749D01*
X547501D01*
X548750Y232499D01*
Y230000D01*
X547501Y228750D01*
X543752D01*
X546251D02*
X548750Y226251D01*
X556248Y233749D02*
X553749Y232499D01*
X551250Y230000D01*
Y227501D01*
X552499Y226251D01*
X554998D01*
X556248Y227501D01*
Y228750D01*
X554998Y230000D01*
X551250D01*
X543752Y353751D02*
Y361249D01*
X547501D01*
X548750Y359999D01*
Y357500D01*
X547501Y356250D01*
X543752D01*
X546251D02*
X548750Y353751D01*
X556248Y361249D02*
X551250D01*
Y357500D01*
X553749Y358750D01*
X554998D01*
X556248Y357500D01*
Y355001D01*
X554998Y353751D01*
X552499D01*
X551250Y355001D01*
X243752Y226251D02*
Y233749D01*
X247501D01*
X248750Y232499D01*
Y230000D01*
X247501Y228750D01*
X243752D01*
X246251D02*
X248750Y226251D01*
X254998D02*
Y233749D01*
X251250Y230000D01*
X256248D01*
X434752Y378251D02*
Y385749D01*
X438501D01*
X439750Y384499D01*
Y382000D01*
X438501Y380750D01*
X434752D01*
X437251D02*
X439750Y378251D01*
X442250Y384499D02*
X443499Y385749D01*
X445998D01*
X447248Y384499D01*
Y383250D01*
X445998Y382000D01*
X444749D01*
X445998D01*
X447248Y380750D01*
Y379501D01*
X445998Y378251D01*
X443499D01*
X442250Y379501D01*
X391003Y388749D02*
Y381251D01*
X394752D01*
X396002Y382501D01*
Y387499D01*
X394752Y388749D01*
X391003D01*
X403499Y387499D02*
X402250Y388749D01*
X399750D01*
X398501Y387499D01*
Y386250D01*
X399750Y385000D01*
X402250D01*
X403499Y383750D01*
Y382501D01*
X402250Y381251D01*
X399750D01*
X398501Y382501D01*
X405998Y387499D02*
X407248Y388749D01*
X409747D01*
X410997Y387499D01*
Y386250D01*
X409747Y385000D01*
X408498D01*
X409747D01*
X410997Y383750D01*
Y382501D01*
X409747Y381251D01*
X407248D01*
X405998Y382501D01*
X340002Y258749D02*
Y252501D01*
X341251Y251251D01*
X343750D01*
X345000Y252501D01*
Y258749D01*
X347499Y251251D02*
X349998D01*
X348749D01*
Y258749D01*
X347499Y257499D01*
X541249Y106252D02*
X533751D01*
Y110001D01*
X535001Y111250D01*
X537500D01*
X538750Y110001D01*
Y106252D01*
Y108751D02*
X541249Y111250D01*
Y118748D02*
Y113750D01*
X536250Y118748D01*
X535001D01*
X533751Y117498D01*
Y114999D01*
X535001Y113750D01*
X291249Y107502D02*
X283751D01*
Y111250D01*
X285001Y112500D01*
X287500D01*
X288750Y111250D01*
Y107502D01*
Y110001D02*
X291249Y112500D01*
Y114999D02*
Y117498D01*
Y116249D01*
X283751D01*
X285001Y114999D01*
X788750Y353749D02*
X786251D01*
X787501D01*
Y347501D01*
X786251Y346251D01*
X785002D01*
X783752Y347501D01*
X796248Y353749D02*
X793749Y352499D01*
X791250Y350000D01*
Y347501D01*
X792499Y346251D01*
X794998D01*
X796248Y347501D01*
Y348750D01*
X794998Y350000D01*
X791250D01*
X598750Y368749D02*
X596251D01*
X597501D01*
Y362501D01*
X596251Y361251D01*
X595002D01*
X593752Y362501D01*
X606248Y368749D02*
X601250D01*
Y365000D01*
X603749Y366250D01*
X604998D01*
X606248Y365000D01*
Y362501D01*
X604998Y361251D01*
X602499D01*
X601250Y362501D01*
X328750Y18749D02*
X326251D01*
X327501D01*
Y12501D01*
X326251Y11251D01*
X325002D01*
X323752Y12501D01*
X334998Y11251D02*
Y18749D01*
X331250Y15000D01*
X336248D01*
X328750Y223749D02*
X326251D01*
X327501D01*
Y217501D01*
X326251Y216251D01*
X325002D01*
X323752Y217501D01*
X331250Y222499D02*
X332499Y223749D01*
X334998D01*
X336248Y222499D01*
Y221250D01*
X334998Y220000D01*
X333749D01*
X334998D01*
X336248Y218750D01*
Y217501D01*
X334998Y216251D01*
X332499D01*
X331250Y217501D01*
X8750Y353749D02*
X6251D01*
X7501D01*
Y347501D01*
X6251Y346251D01*
X5002D01*
X3752Y347501D01*
X16248Y346251D02*
X11250D01*
X16248Y351250D01*
Y352499D01*
X14998Y353749D01*
X12499D01*
X11250Y352499D01*
X97500Y368749D02*
X95001D01*
X96250D01*
Y362501D01*
X95001Y361251D01*
X93751D01*
X92502Y362501D01*
X99999Y361251D02*
X102498D01*
X101249D01*
Y368749D01*
X99999Y367499D01*
X507251Y141003D02*
X514749D01*
Y144752D01*
X513499Y146002D01*
X508501D01*
X507251Y144752D01*
Y141003D01*
X508501Y153499D02*
X507251Y152250D01*
Y149750D01*
X508501Y148501D01*
X509750D01*
X511000Y149750D01*
Y152250D01*
X512250Y153499D01*
X513499D01*
X514749Y152250D01*
Y149750D01*
X513499Y148501D01*
X514749Y160997D02*
Y155998D01*
X509750Y160997D01*
X508501D01*
X507251Y159747D01*
Y157248D01*
X508501Y155998D01*
X285251Y143253D02*
X292749D01*
Y147002D01*
X291499Y148251D01*
X286501D01*
X285251Y147002D01*
Y143253D01*
X286501Y155749D02*
X285251Y154499D01*
Y152000D01*
X286501Y150750D01*
X287750D01*
X289000Y152000D01*
Y154499D01*
X290250Y155749D01*
X291499D01*
X292749Y154499D01*
Y152000D01*
X291499Y150750D01*
X292749Y158248D02*
Y160747D01*
Y159498D01*
X285251D01*
X286501Y158248D01*
X388000Y336499D02*
X386750Y337749D01*
X384251D01*
X383002Y336499D01*
Y331501D01*
X384251Y330251D01*
X386750D01*
X388000Y331501D01*
X390499Y330251D02*
X392998D01*
X391749D01*
Y337749D01*
X390499Y336499D01*
D15*
X668457Y247496D02*
X665918Y250035D01*
X660839D01*
X658300Y247496D01*
Y244957D01*
X660839Y242418D01*
X665918D01*
X668457Y239878D01*
Y237339D01*
X665918Y234800D01*
X660839D01*
X658300Y237339D01*
X683692Y247496D02*
X681153Y250035D01*
X676074D01*
X673535Y247496D01*
Y237339D01*
X676074Y234800D01*
X681153D01*
X683692Y237339D01*
X688770Y250035D02*
Y234800D01*
Y239878D01*
X698927Y250035D01*
X691309Y242418D01*
X698927Y234800D01*
X669457Y272496D02*
X666917Y275035D01*
X661839D01*
X659300Y272496D01*
Y269957D01*
X661839Y267418D01*
X666917D01*
X669457Y264878D01*
Y262339D01*
X666917Y259800D01*
X661839D01*
X659300Y262339D01*
X674535Y275035D02*
Y259800D01*
X682153D01*
X684692Y262339D01*
Y272496D01*
X682153Y275035D01*
X674535D01*
X669457Y297496D02*
X666917Y300035D01*
X661839D01*
X659300Y297496D01*
Y294957D01*
X661839Y292418D01*
X666917D01*
X669457Y289878D01*
Y287339D01*
X666917Y284800D01*
X661839D01*
X659300Y287339D01*
X674535Y300035D02*
Y284800D01*
X682153D01*
X684692Y287339D01*
Y297496D01*
X682153Y300035D01*
X674535D01*
X689770D02*
X694848D01*
X692309D01*
Y284800D01*
X689770D01*
X694848D01*
X669457Y322496D02*
X666917Y325035D01*
X661839D01*
X659300Y322496D01*
Y319957D01*
X661839Y317418D01*
X666917D01*
X669457Y314878D01*
Y312339D01*
X666917Y309800D01*
X661839D01*
X659300Y312339D01*
X674535Y325035D02*
Y309800D01*
X682153D01*
X684692Y312339D01*
Y322496D01*
X682153Y325035D01*
X674535D01*
X697388D02*
X692309D01*
X689770Y322496D01*
Y312339D01*
X692309Y309800D01*
X697388D01*
X699927Y312339D01*
Y322496D01*
X697388Y325035D01*
X660300Y342417D02*
X670457D01*
X665378Y347496D02*
Y337339D01*
X685692Y350035D02*
X675535D01*
Y342417D01*
X680613Y344957D01*
X683153D01*
X685692Y342417D01*
Y337339D01*
X683153Y334800D01*
X678074D01*
X675535Y337339D01*
X690770Y350035D02*
Y339878D01*
X695848Y334800D01*
X700927Y339878D01*
Y350035D01*
X668457Y222496D02*
X665918Y225035D01*
X660839D01*
X658300Y222496D01*
Y212339D01*
X660839Y209800D01*
X665918D01*
X668457Y212339D01*
Y217418D01*
X663378D01*
X673535Y209800D02*
Y225035D01*
X683692Y209800D01*
Y225035D01*
X688770D02*
Y209800D01*
X696388D01*
X698927Y212339D01*
Y222496D01*
X696388Y225035D01*
X688770D01*
X109357Y322896D02*
X106818Y325435D01*
X101739D01*
X99200Y322896D01*
Y320357D01*
X101739Y317817D01*
X106818D01*
X109357Y315278D01*
Y312739D01*
X106818Y310200D01*
X101739D01*
X99200Y312739D01*
X124592Y322896D02*
X122053Y325435D01*
X116974D01*
X114435Y322896D01*
Y312739D01*
X116974Y310200D01*
X122053D01*
X124592Y312739D01*
X129670Y325435D02*
Y310200D01*
Y315278D01*
X139827Y325435D01*
X132209Y317817D01*
X139827Y310200D01*
X108357Y297896D02*
X105817Y300435D01*
X100739D01*
X98200Y297896D01*
Y295357D01*
X100739Y292817D01*
X105817D01*
X108357Y290278D01*
Y287739D01*
X105817Y285200D01*
X100739D01*
X98200Y287739D01*
X113435Y300435D02*
Y285200D01*
X121053D01*
X123592Y287739D01*
Y297896D01*
X121053Y300435D01*
X113435D01*
X108357Y272896D02*
X105817Y275435D01*
X100739D01*
X98200Y272896D01*
Y270357D01*
X100739Y267817D01*
X105817D01*
X108357Y265278D01*
Y262739D01*
X105817Y260200D01*
X100739D01*
X98200Y262739D01*
X113435Y275435D02*
Y260200D01*
X121053D01*
X123592Y262739D01*
Y272896D01*
X121053Y275435D01*
X113435D01*
X128670D02*
X133749D01*
X131209D01*
Y260200D01*
X128670D01*
X133749D01*
X108357Y247896D02*
X105817Y250435D01*
X100739D01*
X98200Y247896D01*
Y245357D01*
X100739Y242817D01*
X105817D01*
X108357Y240278D01*
Y237739D01*
X105817Y235200D01*
X100739D01*
X98200Y237739D01*
X113435Y250435D02*
Y235200D01*
X121053D01*
X123592Y237739D01*
Y247896D01*
X121053Y250435D01*
X113435D01*
X136288D02*
X131209D01*
X128670Y247896D01*
Y237739D01*
X131209Y235200D01*
X136288D01*
X138827Y237739D01*
Y247896D01*
X136288Y250435D01*
X97200Y217817D02*
X107357D01*
X102278Y222896D02*
Y212739D01*
X122592Y225435D02*
X112435D01*
Y217817D01*
X117513Y220357D01*
X120053D01*
X122592Y217817D01*
Y212739D01*
X120053Y210200D01*
X114974D01*
X112435Y212739D01*
X127670Y225435D02*
Y215278D01*
X132748Y210200D01*
X137827Y215278D01*
Y225435D01*
X109357Y347896D02*
X106818Y350435D01*
X101739D01*
X99200Y347896D01*
Y337739D01*
X101739Y335200D01*
X106818D01*
X109357Y337739D01*
Y342817D01*
X104278D01*
X114435Y335200D02*
Y350435D01*
X124592Y335200D01*
Y350435D01*
X129670D02*
Y335200D01*
X137288D01*
X139827Y337739D01*
Y347896D01*
X137288Y350435D01*
X129670D01*
X367496Y136543D02*
X370035Y139082D01*
Y144161D01*
X367496Y146700D01*
X364957D01*
X362417Y144161D01*
Y139082D01*
X359878Y136543D01*
X357339D01*
X354800Y139082D01*
Y144161D01*
X357339Y146700D01*
X367496Y121308D02*
X370035Y123847D01*
Y128926D01*
X367496Y131465D01*
X357339D01*
X354800Y128926D01*
Y123847D01*
X357339Y121308D01*
X370035Y116230D02*
X354800D01*
X359878D01*
X370035Y106073D01*
X362417Y113691D01*
X354800Y106073D01*
X392496Y135543D02*
X395035Y138083D01*
Y143161D01*
X392496Y145700D01*
X389957D01*
X387417Y143161D01*
Y138083D01*
X384878Y135543D01*
X382339D01*
X379800Y138083D01*
Y143161D01*
X382339Y145700D01*
X395035Y130465D02*
X379800D01*
Y122847D01*
X382339Y120308D01*
X392496D01*
X395035Y122847D01*
Y130465D01*
X417496Y135543D02*
X420035Y138083D01*
Y143161D01*
X417496Y145700D01*
X414957D01*
X412417Y143161D01*
Y138083D01*
X409878Y135543D01*
X407339D01*
X404800Y138083D01*
Y143161D01*
X407339Y145700D01*
X420035Y130465D02*
X404800D01*
Y122847D01*
X407339Y120308D01*
X417496D01*
X420035Y122847D01*
Y130465D01*
Y115230D02*
Y110152D01*
Y112691D01*
X404800D01*
Y115230D01*
Y110152D01*
X442496Y135543D02*
X445035Y138083D01*
Y143161D01*
X442496Y145700D01*
X439957D01*
X437417Y143161D01*
Y138083D01*
X434878Y135543D01*
X432339D01*
X429800Y138083D01*
Y143161D01*
X432339Y145700D01*
X445035Y130465D02*
X429800D01*
Y122847D01*
X432339Y120308D01*
X442496D01*
X445035Y122847D01*
Y130465D01*
Y107612D02*
Y112691D01*
X442496Y115230D01*
X432339D01*
X429800Y112691D01*
Y107612D01*
X432339Y105073D01*
X442496D01*
X445035Y107612D01*
X462417Y144700D02*
Y134543D01*
X467496Y139622D02*
X457339D01*
X470035Y119308D02*
Y129465D01*
X462417D01*
X464957Y124387D01*
Y121847D01*
X462417Y119308D01*
X457339D01*
X454800Y121847D01*
Y126926D01*
X457339Y129465D01*
X470035Y114230D02*
X459878D01*
X454800Y109151D01*
X459878Y104073D01*
X470035D01*
X342496Y136543D02*
X345035Y139082D01*
Y144161D01*
X342496Y146700D01*
X332339D01*
X329800Y144161D01*
Y139082D01*
X332339Y136543D01*
X337417D01*
Y141622D01*
X329800Y131465D02*
X345035D01*
X329800Y121308D01*
X345035D01*
Y116230D02*
X329800D01*
Y108612D01*
X332339Y106073D01*
X342496D01*
X345035Y108612D01*
Y116230D01*
D16*
X734165Y209997D02*
X727500D01*
Y204998D01*
X730832Y206665D01*
X732498D01*
X734165Y204998D01*
Y201666D01*
X732498Y200000D01*
X729166D01*
X727500Y201666D01*
Y347500D02*
X730832D01*
X729166D01*
Y357497D01*
X727500Y355831D01*
X749165Y209997D02*
X745832Y208331D01*
X742500Y204998D01*
Y201666D01*
X744166Y200000D01*
X747498D01*
X749165Y201666D01*
Y203332D01*
X747498Y204998D01*
X742500D01*
X746665Y347500D02*
X740000D01*
X746665Y354165D01*
Y355831D01*
X744998Y357497D01*
X741666D01*
X740000Y355831D01*
X76665Y355997D02*
X70000D01*
Y350998D01*
X73332Y352664D01*
X74998D01*
X76665Y350998D01*
Y347666D01*
X74998Y346000D01*
X71666D01*
X70000Y347666D01*
X67000Y204000D02*
X70332D01*
X68666D01*
Y213997D01*
X67000Y212331D01*
X60665Y355997D02*
X57332Y354331D01*
X54000Y350998D01*
Y347666D01*
X55666Y346000D01*
X58998D01*
X60665Y347666D01*
Y349332D01*
X58998Y350998D01*
X54000D01*
X59665Y204000D02*
X53000D01*
X59665Y210665D01*
Y212331D01*
X57998Y213997D01*
X54666D01*
X53000Y212331D01*
X333997Y73335D02*
Y80000D01*
X328998D01*
X330664Y76668D01*
Y75002D01*
X328998Y73335D01*
X325666D01*
X324000Y75002D01*
Y78334D01*
X325666Y80000D01*
X466000Y77000D02*
Y73668D01*
Y75334D01*
X475997D01*
X474331Y77000D01*
X333997Y57336D02*
X332331Y60668D01*
X328998Y64000D01*
X325666D01*
X324000Y62334D01*
Y59002D01*
X325666Y57336D01*
X327332D01*
X328998Y59002D01*
Y64000D01*
X466000Y56336D02*
Y63000D01*
X472664Y56336D01*
X474331D01*
X475997Y58002D01*
Y61334D01*
X474331Y63000D01*
M02*
