M48
;Layer_Color=9474304
;FILE_FORMAT=4:4
METRIC
;TYPE=PLATED
T1F00S00C0.4000
T2F00S00C0.8000
T3F00S00C0.9000
T4F00S00C1.4000
%
T01
X00230000Y00217500
X00387500Y00205000
Y00245000
X00400000
X00425000
Y00300000
X00400000
X00347500Y00335000
X00525000Y00315000
Y00175000
X00570000Y00217500
X00377500Y00370000
T02
X00052500Y00261000
X00067500
Y00280000
X00052500
Y00299000
X00067500
X00381000Y00075000
Y00060000
X00400000
Y00075000
X00419000
Y00060000
X00730000Y00261000
X00745000
Y00280000
X00730000
Y00299000
X00745000
T03
X00175000Y00216500
Y00241900
Y00267300
Y00292700
Y00318100
X00336500Y00180000
X00361900
X00387300
X00412700
X00438100
X00463500
X00625000Y00216500
Y00241900
Y00267300
Y00292700
Y00318100
Y00343500
X00175000
T04
X00045500Y00230500
Y00329500
X00350500Y00053000
X00449500
X00752000Y00230500
Y00329500
M30
