G04*
G04 #@! TF.GenerationSoftware,Altium Limited,Altium Designer,23.4.1 (23)*
G04*
G04 Layer_Physical_Order=2*
G04 Layer_Color=16711680*
%FSLAX44Y44*%
%MOMM*%
G71*
G04*
G04 #@! TF.SameCoordinates,803C344B-8DD6-4E4C-9FAA-A71E5F9A745E*
G04*
G04*
G04 #@! TF.FilePolarity,Positive*
G04*
G01*
G75*
%ADD19R,1.3000X1.5000*%
%ADD21R,1.5000X1.3000*%
%ADD35C,0.4000*%
%ADD36C,1.5000*%
%ADD37R,1.5000X1.5000*%
%ADD38O,1.3000X1.5000*%
%ADD39C,3.0000*%
%ADD40O,1.5000X1.3000*%
%ADD41R,1.5000X1.5000*%
%ADD42C,0.8000*%
G36*
X790000Y10000D02*
X10000D01*
Y390000D01*
X790000D01*
Y10000D01*
D02*
G37*
%LPC*%
G36*
X634500Y353000D02*
X615500D01*
Y334000D01*
X634500D01*
Y353000D01*
D02*
G37*
G36*
X176251Y327600D02*
X173749D01*
X171333Y326953D01*
X169167Y325702D01*
X167398Y323933D01*
X166147Y321767D01*
X165500Y319351D01*
Y316849D01*
X166147Y314433D01*
X167398Y312267D01*
X169167Y310498D01*
X171333Y309247D01*
X173749Y308600D01*
X176251D01*
X178667Y309247D01*
X180833Y310498D01*
X182602Y312267D01*
X183853Y314433D01*
X184500Y316849D01*
Y319351D01*
X183853Y321767D01*
X182602Y323933D01*
X180833Y325702D01*
X178667Y326953D01*
X176251Y327600D01*
D02*
G37*
G36*
X626251Y302200D02*
X623749D01*
X621333Y301553D01*
X619167Y300302D01*
X617398Y298533D01*
X616147Y296367D01*
X615500Y293951D01*
Y291449D01*
X616147Y289033D01*
X617398Y286867D01*
X619167Y285098D01*
X621333Y283847D01*
X623749Y283200D01*
X626251D01*
X628667Y283847D01*
X630833Y285098D01*
X632602Y286867D01*
X633853Y289033D01*
X634500Y291449D01*
Y293951D01*
X633853Y296367D01*
X632602Y298533D01*
X630833Y300302D01*
X628667Y301553D01*
X626251Y302200D01*
D02*
G37*
G36*
X176251Y276800D02*
X173749D01*
X171333Y276153D01*
X169167Y274902D01*
X167398Y273133D01*
X166147Y270967D01*
X165500Y268551D01*
Y266049D01*
X166147Y263633D01*
X167398Y261467D01*
X169167Y259698D01*
X171333Y258447D01*
X173749Y257800D01*
X176251D01*
X178667Y258447D01*
X180833Y259698D01*
X182602Y261467D01*
X183853Y263633D01*
X184500Y266049D01*
Y268551D01*
X183853Y270967D01*
X182602Y273133D01*
X180833Y274902D01*
X178667Y276153D01*
X176251Y276800D01*
D02*
G37*
G36*
X626251Y327600D02*
X623749D01*
X621333Y326953D01*
X619167Y325702D01*
X617398Y323933D01*
X616147Y321767D01*
X615500Y319351D01*
Y316849D01*
X616147Y314433D01*
X617398Y312267D01*
X619167Y310498D01*
X621333Y309247D01*
X623749Y308600D01*
X626251D01*
X628667Y309247D01*
X630833Y310498D01*
X632602Y312267D01*
X633269Y313422D01*
X733311D01*
X736754Y309978D01*
X736142Y308500D01*
X721500D01*
Y289500D01*
X724486D01*
X725030Y287900D01*
X723938Y287062D01*
X722575Y285287D01*
X721719Y283219D01*
X721427Y281000D01*
Y279000D01*
X721719Y276781D01*
X722575Y274713D01*
X723938Y272938D01*
X725713Y271575D01*
X726219Y271366D01*
Y269634D01*
X725713Y269425D01*
X723938Y268062D01*
X722575Y266287D01*
X721719Y264219D01*
X721427Y262000D01*
Y260000D01*
X721719Y257781D01*
X722575Y255713D01*
X722986Y255178D01*
X722197Y253578D01*
X644489D01*
X633975Y264092D01*
X634500Y266049D01*
Y268551D01*
X633853Y270967D01*
X632602Y273133D01*
X630833Y274902D01*
X628667Y276153D01*
X626251Y276800D01*
X623749D01*
X621333Y276153D01*
X619167Y274902D01*
X617398Y273133D01*
X616147Y270967D01*
X615500Y268551D01*
Y268539D01*
X614811Y268079D01*
X614811Y268079D01*
X570232Y223500D01*
X568806D01*
X566601Y222586D01*
X564913Y220899D01*
X564000Y218694D01*
Y216306D01*
X564913Y214101D01*
X566601Y212413D01*
X568806Y211500D01*
X571194D01*
X573399Y212413D01*
X575087Y214101D01*
X576000Y216306D01*
Y217732D01*
X618566Y260299D01*
X619167Y259698D01*
X621333Y258447D01*
X623749Y257800D01*
X626251D01*
X628208Y258325D01*
X639916Y246616D01*
X639916Y246616D01*
X641239Y245732D01*
X642800Y245422D01*
X751849D01*
X751849Y245422D01*
X753410Y245732D01*
X754733Y246616D01*
X760884Y252767D01*
X760884Y252767D01*
X761768Y254090D01*
X762078Y255651D01*
Y269157D01*
X762078Y269157D01*
X761768Y270718D01*
X760884Y272041D01*
X753573Y279351D01*
Y281000D01*
X753281Y283219D01*
X752425Y285287D01*
X751062Y287062D01*
X749287Y288425D01*
X748781Y288634D01*
Y290366D01*
X749287Y290575D01*
X751062Y291938D01*
X752425Y293713D01*
X753281Y295781D01*
X753573Y298000D01*
Y300000D01*
X753281Y302219D01*
X752425Y304287D01*
X751062Y306062D01*
X749794Y307036D01*
X749546Y308283D01*
X748662Y309606D01*
X737884Y320384D01*
X736561Y321268D01*
X735000Y321578D01*
X735000Y321578D01*
X633903D01*
X633853Y321767D01*
X632602Y323933D01*
X630833Y325702D01*
X628667Y326953D01*
X626251Y327600D01*
D02*
G37*
G36*
X378694Y376000D02*
X376306D01*
X374101Y375087D01*
X372413Y373399D01*
X371500Y371194D01*
Y368806D01*
X372413Y366601D01*
X374101Y364913D01*
X376306Y364000D01*
X377732D01*
X395922Y345811D01*
Y304407D01*
X394913Y303399D01*
X394000Y301194D01*
Y298806D01*
X394913Y296601D01*
X395922Y295593D01*
Y249407D01*
X394913Y248399D01*
X394616Y247680D01*
X392884D01*
X392587Y248399D01*
X390899Y250087D01*
X388694Y251000D01*
X386306D01*
X384101Y250087D01*
X382413Y248399D01*
X381500Y246194D01*
Y243806D01*
X382413Y241601D01*
X383422Y240593D01*
Y209407D01*
X382413Y208399D01*
X381500Y206194D01*
Y203806D01*
X382413Y201601D01*
X384101Y199913D01*
X386306Y199000D01*
X388694D01*
X390899Y199913D01*
X392587Y201601D01*
X393500Y203806D01*
Y206194D01*
X392587Y208399D01*
X391578Y209407D01*
Y240593D01*
X392587Y241601D01*
X392884Y242320D01*
X394616D01*
X394913Y241601D01*
X396601Y239914D01*
X398806Y239000D01*
X401194D01*
X403399Y239914D01*
X405087Y241601D01*
X406000Y243806D01*
Y246194D01*
X405087Y248399D01*
X404078Y249407D01*
Y295593D01*
X405087Y296601D01*
X406000Y298806D01*
Y301194D01*
X405087Y303399D01*
X404078Y304407D01*
Y347500D01*
X403768Y349061D01*
X402884Y350384D01*
X402884Y350384D01*
X383500Y369768D01*
Y371194D01*
X382587Y373399D01*
X380899Y375087D01*
X378694Y376000D01*
D02*
G37*
G36*
X626251Y251400D02*
X623749D01*
X621333Y250753D01*
X619167Y249502D01*
X617398Y247733D01*
X616147Y245567D01*
X615500Y243151D01*
Y240649D01*
X616147Y238233D01*
X617398Y236067D01*
X619167Y234298D01*
X621333Y233047D01*
X623749Y232400D01*
X626251D01*
X628667Y233047D01*
X630833Y234298D01*
X632602Y236067D01*
X633853Y238233D01*
X634500Y240649D01*
Y243151D01*
X633853Y245567D01*
X632602Y247733D01*
X630833Y249502D01*
X628667Y250753D01*
X626251Y251400D01*
D02*
G37*
G36*
X157200Y314578D02*
X157200Y314578D01*
X48151D01*
X46590Y314268D01*
X45267Y313384D01*
X45267Y313384D01*
X39116Y307233D01*
X38232Y305910D01*
X37922Y304349D01*
X37922Y304349D01*
Y290843D01*
X37922Y290843D01*
X38232Y289282D01*
X39116Y287959D01*
X44177Y282899D01*
X43927Y281000D01*
Y279000D01*
X44219Y276781D01*
X45075Y274713D01*
X46438Y272938D01*
X48213Y271575D01*
X48719Y271366D01*
Y269634D01*
X48213Y269425D01*
X46438Y268062D01*
X45075Y266287D01*
X44219Y264219D01*
X43927Y262000D01*
Y260000D01*
X44219Y257781D01*
X45075Y255713D01*
X46438Y253938D01*
X48213Y252575D01*
X50281Y251719D01*
X50470Y251694D01*
X51338Y250394D01*
X62116Y239616D01*
X62116Y239616D01*
X63439Y238732D01*
X65000Y238422D01*
X166097D01*
X166147Y238233D01*
X167398Y236067D01*
X169167Y234298D01*
X171333Y233047D01*
X173749Y232400D01*
X176251D01*
X178667Y233047D01*
X180833Y234298D01*
X182602Y236067D01*
X183853Y238233D01*
X184500Y240649D01*
Y243151D01*
X183853Y245567D01*
X182602Y247733D01*
X180833Y249502D01*
X178667Y250753D01*
X176251Y251400D01*
X173749D01*
X171333Y250753D01*
X169167Y249502D01*
X167398Y247733D01*
X166731Y246578D01*
X66689D01*
X63246Y250022D01*
X63858Y251500D01*
X76000D01*
Y270500D01*
X73014D01*
X72470Y272100D01*
X73562Y272938D01*
X74925Y274713D01*
X75781Y276781D01*
X76073Y279000D01*
Y281000D01*
X75781Y283219D01*
X74925Y285287D01*
X73562Y287062D01*
X71787Y288425D01*
X71281Y288634D01*
Y290366D01*
X71787Y290575D01*
X73562Y291938D01*
X74925Y293713D01*
X75781Y295781D01*
X76073Y298000D01*
Y300000D01*
X75781Y302219D01*
X74925Y304287D01*
X74514Y304822D01*
X75303Y306422D01*
X155511D01*
X166024Y295908D01*
X165500Y293951D01*
Y291449D01*
X166147Y289033D01*
X167398Y286867D01*
X169167Y285098D01*
X171333Y283847D01*
X173749Y283200D01*
X176251D01*
X178208Y283724D01*
X225922Y236011D01*
Y221907D01*
X224913Y220899D01*
X224000Y218694D01*
Y216306D01*
X224913Y214101D01*
X226601Y212413D01*
X228806Y211500D01*
X231194D01*
X233399Y212413D01*
X235087Y214101D01*
X236000Y216306D01*
Y218694D01*
X235087Y220899D01*
X234078Y221907D01*
Y237700D01*
X234078Y237700D01*
X233768Y239261D01*
X232884Y240584D01*
X183976Y289492D01*
X184500Y291449D01*
Y293951D01*
X183853Y296367D01*
X182602Y298533D01*
X180833Y300302D01*
X178667Y301553D01*
X176251Y302200D01*
X173749D01*
X171792Y301675D01*
X160084Y313384D01*
X158761Y314268D01*
X158502Y314319D01*
X157200Y314578D01*
D02*
G37*
G36*
X184500Y226000D02*
X165500D01*
Y207000D01*
X184500D01*
Y226000D01*
D02*
G37*
G36*
X348694Y341000D02*
X346306D01*
X344101Y340087D01*
X342413Y338399D01*
X341500Y336194D01*
Y333806D01*
X342413Y331601D01*
X343922Y330093D01*
Y177000D01*
X343922Y177000D01*
X344232Y175439D01*
X345116Y174116D01*
X359916Y159316D01*
X361239Y158432D01*
X362800Y158122D01*
X365422D01*
Y53151D01*
X365422Y53151D01*
X365732Y51590D01*
X366616Y50267D01*
X372767Y44116D01*
X372767Y44116D01*
X374090Y43232D01*
X375651Y42922D01*
X389157D01*
X389157Y42922D01*
X390718Y43232D01*
X392041Y44116D01*
X399351Y51427D01*
X401000D01*
X403219Y51719D01*
X405287Y52575D01*
X407062Y53938D01*
X408425Y55713D01*
X408634Y56219D01*
X410366D01*
X410575Y55713D01*
X411938Y53938D01*
X413713Y52575D01*
X415781Y51719D01*
X418000Y51427D01*
X420000D01*
X422219Y51719D01*
X424287Y52575D01*
X426062Y53938D01*
X427035Y55206D01*
X428283Y55454D01*
X429606Y56338D01*
X440384Y67116D01*
X440384Y67116D01*
X441268Y68439D01*
X441578Y70000D01*
Y171097D01*
X441767Y171147D01*
X443933Y172398D01*
X445702Y174167D01*
X446953Y176333D01*
X447600Y178749D01*
Y181251D01*
X446953Y183667D01*
X445702Y185833D01*
X443933Y187602D01*
X441767Y188853D01*
X439351Y189500D01*
X436849D01*
X434433Y188853D01*
X432267Y187602D01*
X430498Y185833D01*
X429247Y183667D01*
X428600Y181251D01*
Y178749D01*
X429247Y176333D01*
X430498Y174167D01*
X432267Y172398D01*
X433422Y171731D01*
Y71689D01*
X429978Y68246D01*
X428500Y68858D01*
Y83500D01*
X409500D01*
Y80514D01*
X407900Y79970D01*
X407062Y81062D01*
X405287Y82425D01*
X403219Y83281D01*
X401000Y83573D01*
X399000D01*
X396781Y83281D01*
X394713Y82425D01*
X392938Y81062D01*
X391575Y79287D01*
X391366Y78781D01*
X389634D01*
X389425Y79287D01*
X388062Y81062D01*
X386287Y82425D01*
X384219Y83281D01*
X382000Y83573D01*
X380000D01*
X377781Y83281D01*
X375713Y82425D01*
X375178Y82014D01*
X373578Y82803D01*
Y160511D01*
X384092Y171024D01*
X386049Y170500D01*
X388551D01*
X390967Y171147D01*
X393133Y172398D01*
X394902Y174167D01*
X396152Y176333D01*
X396800Y178749D01*
Y181251D01*
X396152Y183667D01*
X394902Y185833D01*
X393913Y186822D01*
X394576Y188422D01*
X397500D01*
X397500Y188422D01*
X399061Y188732D01*
X400384Y189616D01*
X427884Y217116D01*
X427884Y217116D01*
X428768Y218439D01*
X429078Y220000D01*
Y239205D01*
X429322Y239368D01*
X430922Y238513D01*
Y203989D01*
X415908Y188976D01*
X413951Y189500D01*
X411449D01*
X409033Y188853D01*
X406867Y187602D01*
X405098Y185833D01*
X403847Y183667D01*
X403200Y181251D01*
Y178749D01*
X403847Y176333D01*
X405098Y174167D01*
X406867Y172398D01*
X409033Y171147D01*
X411449Y170500D01*
X413951D01*
X416367Y171147D01*
X418533Y172398D01*
X420302Y174167D01*
X421553Y176333D01*
X422200Y178749D01*
Y181251D01*
X421675Y183208D01*
X437884Y199416D01*
X438768Y200739D01*
X439078Y202300D01*
X439078Y202300D01*
Y290000D01*
X438768Y291561D01*
X437884Y292884D01*
X437884Y292884D01*
X431000Y299768D01*
Y301194D01*
X430087Y303399D01*
X428399Y305087D01*
X426194Y306000D01*
X423806D01*
X421601Y305087D01*
X419913Y303399D01*
X419000Y301194D01*
Y298806D01*
X419913Y296601D01*
X421601Y294914D01*
X423806Y294000D01*
X425232D01*
X430922Y288311D01*
Y249826D01*
X429322Y249164D01*
X428399Y250087D01*
X426194Y251000D01*
X423806D01*
X421601Y250087D01*
X419913Y248399D01*
X419000Y246194D01*
Y243806D01*
X419913Y241601D01*
X420922Y240593D01*
Y221689D01*
X395811Y196578D01*
X374400D01*
X372839Y196268D01*
X371516Y195384D01*
X371516Y195384D01*
X365108Y188976D01*
X363151Y189500D01*
X360649D01*
X358233Y188853D01*
X356067Y187602D01*
X354298Y185833D01*
X353678Y184760D01*
X352078Y185188D01*
Y331093D01*
X352587Y331601D01*
X353500Y333806D01*
Y336194D01*
X352587Y338399D01*
X350899Y340087D01*
X348694Y341000D01*
D02*
G37*
G36*
X473000Y189500D02*
X454000D01*
Y170500D01*
X473000D01*
Y189500D01*
D02*
G37*
G36*
X526194Y321000D02*
X523806D01*
X521601Y320087D01*
X519913Y318399D01*
X519000Y316194D01*
Y313806D01*
X519913Y311601D01*
X520922Y310593D01*
Y179407D01*
X519913Y178399D01*
X519000Y176194D01*
Y173806D01*
X519913Y171601D01*
X521601Y169914D01*
X523806Y169000D01*
X526194D01*
X528399Y169914D01*
X530087Y171601D01*
X531000Y173806D01*
Y176194D01*
X530087Y178399D01*
X529078Y179407D01*
Y310593D01*
X530087Y311601D01*
X531000Y313806D01*
Y316194D01*
X530087Y318399D01*
X528399Y320087D01*
X526194Y321000D01*
D02*
G37*
%LPD*%
G36*
X738938Y272938D02*
X740713Y271575D01*
X742781Y270719D01*
X745000Y270427D01*
X747219Y270719D01*
X749287Y271575D01*
X749585Y271804D01*
X753922Y267467D01*
Y257340D01*
X750160Y253578D01*
X737803D01*
X737014Y255178D01*
X737425Y255713D01*
X738281Y257781D01*
X738573Y260000D01*
Y262000D01*
X738281Y264219D01*
X737425Y266287D01*
X736062Y268062D01*
X734287Y269425D01*
X733781Y269634D01*
Y271366D01*
X734287Y271575D01*
X736062Y272938D01*
X736492Y273497D01*
X738508D01*
X738938Y272938D01*
D02*
G37*
G36*
X60486Y304822D02*
X60075Y304287D01*
X59219Y302219D01*
X58927Y300000D01*
Y298000D01*
X59219Y295781D01*
X60075Y293713D01*
X61438Y291938D01*
X63213Y290575D01*
X63719Y290366D01*
Y288634D01*
X63213Y288425D01*
X61438Y287062D01*
X61008Y286503D01*
X58992D01*
X58562Y287062D01*
X56787Y288425D01*
X54719Y289281D01*
X52500Y289573D01*
X50281Y289281D01*
X49608Y289002D01*
X46078Y292533D01*
Y302660D01*
X49840Y306422D01*
X59697D01*
X60486Y304822D01*
D02*
G37*
G36*
X391575Y70713D02*
X392938Y68938D01*
X393497Y68508D01*
Y66492D01*
X392938Y66062D01*
X391575Y64287D01*
X390719Y62219D01*
X390427Y60000D01*
X390719Y57781D01*
X391575Y55713D01*
X391804Y55415D01*
X387467Y51078D01*
X377340D01*
X373578Y54840D01*
Y67197D01*
X375178Y67986D01*
X375713Y67575D01*
X377781Y66719D01*
X380000Y66427D01*
X382000D01*
X384219Y66719D01*
X386287Y67575D01*
X388062Y68938D01*
X389425Y70713D01*
X389634Y71219D01*
X391366D01*
X391575Y70713D01*
D02*
G37*
D19*
X730000Y299000D02*
D03*
X67500Y261000D02*
D03*
D21*
X419000Y75000D02*
D03*
D35*
X377500Y370000D02*
X400000Y347500D01*
Y300000D02*
Y347500D01*
X525000Y175000D02*
Y315000D01*
X400000Y245000D02*
Y300000D01*
X387500Y205000D02*
Y245000D01*
X175000Y292700D02*
X230000Y237700D01*
Y217500D02*
Y237700D01*
X348000Y177000D02*
X362800Y162200D01*
X348000Y177000D02*
Y334500D01*
X347500Y335000D02*
X348000Y334500D01*
X362800Y162200D02*
X369500D01*
X157200Y310500D02*
X175000Y292700D01*
X622895Y265195D02*
X625000Y267300D01*
X617695Y265195D02*
X622895D01*
X570000Y217500D02*
X617695Y265195D01*
X412700Y180000D02*
X435000Y202300D01*
X425000Y220000D02*
Y245000D01*
X397500Y192500D02*
X425000Y220000D01*
X435000Y202300D02*
Y290000D01*
X425000Y300000D02*
X435000Y290000D01*
X361900Y180000D02*
X374400Y192500D01*
X397500D01*
X735000Y317500D02*
X745778Y306722D01*
X625600Y317500D02*
X735000D01*
X751849Y249500D02*
X758000Y255651D01*
Y269157D01*
X747500Y279657D02*
X758000Y269157D01*
X642800Y249500D02*
X751849D01*
X625000Y267300D02*
X642800Y249500D01*
X426722Y59222D02*
X437500Y70000D01*
Y179400D01*
X369500Y53151D02*
X375651Y47000D01*
X389157D01*
X399657Y57500D01*
X369500Y53151D02*
Y162200D01*
X387300Y180000D01*
X48151Y310500D02*
X157200D01*
X52500Y280000D02*
Y280343D01*
X42000Y290843D02*
X52500Y280343D01*
X42000Y290843D02*
Y304349D01*
X48151Y310500D01*
X174400Y242500D02*
X175000Y241900D01*
X65000Y242500D02*
X174400D01*
X52500Y261000D02*
X54222Y259278D01*
Y253278D02*
Y259278D01*
Y253278D02*
X65000Y242500D01*
D36*
X625000Y292700D02*
D03*
Y267300D02*
D03*
Y241900D02*
D03*
Y318100D02*
D03*
Y216500D02*
D03*
X175000Y267300D02*
D03*
Y292700D02*
D03*
Y318100D02*
D03*
Y241900D02*
D03*
Y343500D02*
D03*
X412700Y180000D02*
D03*
X387300D02*
D03*
X361900D02*
D03*
X438100D02*
D03*
X336500D02*
D03*
D37*
X625000Y343500D02*
D03*
X175000Y216500D02*
D03*
D38*
X745000Y261000D02*
D03*
Y299000D02*
D03*
X730000Y261000D02*
D03*
X745000Y280000D02*
D03*
X730000D02*
D03*
X52500Y299000D02*
D03*
Y261000D02*
D03*
X67500Y299000D02*
D03*
X52500Y280000D02*
D03*
X67500D02*
D03*
D39*
X752000Y329500D02*
D03*
Y230500D02*
D03*
X45500Y230500D02*
D03*
Y329500D02*
D03*
X449500Y53000D02*
D03*
X350500D02*
D03*
D40*
X381000Y60000D02*
D03*
X419000D02*
D03*
X381000Y75000D02*
D03*
X400000Y60000D02*
D03*
Y75000D02*
D03*
D41*
X463500Y180000D02*
D03*
D42*
X377500Y370000D02*
D03*
X525000Y175000D02*
D03*
Y315000D02*
D03*
X400000Y245000D02*
D03*
Y300000D02*
D03*
X387500Y245000D02*
D03*
X570000Y217500D02*
D03*
X230000D02*
D03*
X347500Y335000D02*
D03*
X387500Y205000D02*
D03*
X425000Y300000D02*
D03*
Y245000D02*
D03*
M02*
