G04*
G04 #@! TF.GenerationSoftware,Altium Limited,Altium Designer,23.4.1 (23)*
G04*
G04 Layer_Color=8388736*
%FSLAX44Y44*%
%MOMM*%
G71*
G04*
G04 #@! TF.SameCoordinates,803C344B-8DD6-4E4C-9FAA-A71E5F9A745E*
G04*
G04*
G04 #@! TF.FilePolarity,Negative*
G04*
G01*
G75*
%ADD23R,0.6000X1.5500*%
%ADD24R,1.1032X1.2032*%
%ADD25R,1.5032X1.7032*%
%ADD26R,1.2032X1.2032*%
%ADD27R,1.7032X1.5032*%
%ADD28R,1.2032X1.1032*%
%ADD29C,1.7032*%
%ADD30R,1.7032X1.7032*%
%ADD31O,1.5032X1.7032*%
%ADD32C,3.2032*%
%ADD33O,1.7032X1.5032*%
%ADD34R,1.7032X1.7032*%
D23*
X361900Y260500D02*
D03*
X374600D02*
D03*
X387300D02*
D03*
X400000D02*
D03*
X412700D02*
D03*
X425400D02*
D03*
X438100D02*
D03*
Y314500D02*
D03*
X425400D02*
D03*
X412700D02*
D03*
X400000D02*
D03*
X387300D02*
D03*
X374600D02*
D03*
X361900D02*
D03*
D24*
X541500Y345000D02*
D03*
X558500D02*
D03*
X431500Y370000D02*
D03*
X448500D02*
D03*
X558500Y217500D02*
D03*
X541500D02*
D03*
X241500D02*
D03*
X258500D02*
D03*
D25*
X390500Y370000D02*
D03*
X409500D02*
D03*
X730000Y299000D02*
D03*
X67500Y261000D02*
D03*
D26*
X359500Y335000D02*
D03*
X375500D02*
D03*
D27*
X525000Y162000D02*
D03*
Y143000D02*
D03*
X275000Y162000D02*
D03*
Y143000D02*
D03*
X419000Y75000D02*
D03*
D28*
X525000Y121000D02*
D03*
Y104000D02*
D03*
X275000Y121000D02*
D03*
Y104000D02*
D03*
D29*
X625000Y292700D02*
D03*
Y267300D02*
D03*
Y241900D02*
D03*
Y318100D02*
D03*
Y216500D02*
D03*
X175000Y267300D02*
D03*
Y292700D02*
D03*
Y318100D02*
D03*
Y241900D02*
D03*
Y343500D02*
D03*
X412700Y180000D02*
D03*
X387300D02*
D03*
X361900D02*
D03*
X438100D02*
D03*
X336500D02*
D03*
D30*
X625000Y343500D02*
D03*
X175000Y216500D02*
D03*
D31*
X745000Y261000D02*
D03*
Y299000D02*
D03*
X730000Y261000D02*
D03*
X745000Y280000D02*
D03*
X730000D02*
D03*
X52500Y299000D02*
D03*
Y261000D02*
D03*
X67500Y299000D02*
D03*
X52500Y280000D02*
D03*
X67500D02*
D03*
D32*
X752000Y329500D02*
D03*
Y230500D02*
D03*
X45500Y230500D02*
D03*
Y329500D02*
D03*
X449500Y53000D02*
D03*
X350500D02*
D03*
D33*
X381000Y60000D02*
D03*
X419000D02*
D03*
X381000Y75000D02*
D03*
X400000Y60000D02*
D03*
Y75000D02*
D03*
D34*
X463500Y180000D02*
D03*
M02*
